<svg width="69" height="19" viewBox="0 0 69 19" fill="none" xmlns="http://www.w3.org/2000/svg">
<path d="M0.132 18V1.056H3.9V18H0.132ZM3.036 18V14.688H11.412V18H3.036ZM20.7356 18.288C19.4556 18.288 18.2716 18.064 17.1836 17.616C16.1116 17.168 15.1676 16.544 14.3516 15.744C13.5356 14.944 12.9036 14.016 12.4556 12.96C12.0076 11.888 11.7836 10.736 11.7836 9.504C11.7836 8.256 12.0076 7.104 12.4556 6.048C12.9036 4.992 13.5276 4.072 14.3276 3.288C15.1276 2.488 16.0636 1.872 17.1356 1.44C18.2236 0.991999 19.4076 0.767999 20.6876 0.767999C21.9516 0.767999 23.1196 0.991999 24.1916 1.44C25.2796 1.872 26.2236 2.488 27.0236 3.288C27.8396 4.072 28.4716 5 28.9196 6.072C29.3676 7.128 29.5916 8.28 29.5916 9.528C29.5916 10.76 29.3676 11.912 28.9196 12.984C28.4716 14.04 27.8476 14.968 27.0476 15.768C26.2476 16.552 25.3036 17.168 24.2156 17.616C23.1436 18.064 21.9836 18.288 20.7356 18.288ZM20.6876 14.856C21.6956 14.856 22.5756 14.632 23.3276 14.184C24.0956 13.736 24.6876 13.112 25.1036 12.312C25.5196 11.496 25.7276 10.56 25.7276 9.504C25.7276 8.704 25.6076 7.984 25.3676 7.344C25.1276 6.688 24.7836 6.128 24.3356 5.664C23.8876 5.184 23.3516 4.824 22.7276 4.584C22.1196 4.328 21.4396 4.2 20.6876 4.2C19.6796 4.2 18.7916 4.424 18.0236 4.872C17.2716 5.304 16.6876 5.92 16.2716 6.72C15.8556 7.504 15.6476 8.432 15.6476 9.504C15.6476 10.304 15.7676 11.032 16.0076 11.688C16.2476 12.344 16.5836 12.912 17.0156 13.392C17.4636 13.856 17.9996 14.216 18.6236 14.472C19.2476 14.728 19.9356 14.856 20.6876 14.856ZM40.2099 18.264C38.9779 18.264 37.8179 18.04 36.7299 17.592C35.6579 17.144 34.7219 16.528 33.9219 15.744C33.1219 14.944 32.4899 14.016 32.0259 12.96C31.5779 11.888 31.3539 10.736 31.3539 9.504C31.3539 8.272 31.5859 7.128 32.0499 6.072C32.5139 5.016 33.1539 4.096 33.9699 3.312C34.8019 2.512 35.7699 1.896 36.8739 1.464C37.9779 1.016 39.1619 0.792 40.4259 0.792C41.8819 0.792 43.2019 1.056 44.3859 1.584C45.5859 2.112 46.5779 2.84 47.3619 3.768L44.7939 6.336C44.2499 5.632 43.6099 5.104 42.8739 4.752C42.1379 4.4 41.3059 4.224 40.3779 4.224C39.3859 4.224 38.4979 4.448 37.7139 4.896C36.9299 5.328 36.3139 5.944 35.8659 6.744C35.4339 7.528 35.2179 8.448 35.2179 9.504C35.2179 10.56 35.4339 11.488 35.8659 12.288C36.2979 13.088 36.8899 13.712 37.6419 14.16C38.3939 14.608 39.2579 14.832 40.2339 14.832C41.2259 14.832 42.0659 14.648 42.7539 14.28C43.4579 13.896 43.9939 13.352 44.3619 12.648C44.7459 11.928 44.9379 11.056 44.9379 10.032L47.4339 11.712L39.8739 11.592V8.4H48.7779V8.952C48.7779 10.984 48.4099 12.696 47.6739 14.088C46.9539 15.464 45.9459 16.504 44.6499 17.208C43.3699 17.912 41.8899 18.264 40.2099 18.264ZM59.3841 18.288C58.1041 18.288 56.9201 18.064 55.8321 17.616C54.7601 17.168 53.8161 16.544 53.0001 15.744C52.1841 14.944 51.5521 14.016 51.1041 12.96C50.6561 11.888 50.4321 10.736 50.4321 9.504C50.4321 8.256 50.6561 7.104 51.1041 6.048C51.5521 4.992 52.1761 4.072 52.9761 3.288C53.7761 2.488 54.7121 1.872 55.7841 1.44C56.8721 0.991999 58.0561 0.767999 59.3361 0.767999C60.6001 0.767999 61.7681 0.991999 62.8401 1.44C63.9281 1.872 64.8721 2.488 65.6721 3.288C66.4881 4.072 67.1201 5 67.5681 6.072C68.0161 7.128 68.2401 8.28 68.2401 9.528C68.2401 10.76 68.0161 11.912 67.5681 12.984C67.1201 14.04 66.4961 14.968 65.6961 15.768C64.8961 16.552 63.9521 17.168 62.8641 17.616C61.7921 18.064 60.6321 18.288 59.3841 18.288ZM59.3361 14.856C60.3441 14.856 61.2241 14.632 61.9761 14.184C62.7441 13.736 63.3361 13.112 63.7521 12.312C64.1681 11.496 64.3761 10.56 64.3761 9.504C64.3761 8.704 64.2561 7.984 64.0161 7.344C63.7761 6.688 63.4321 6.128 62.9841 5.664C62.5361 5.184 62.0001 4.824 61.3761 4.584C60.7681 4.328 60.0881 4.2 59.3361 4.2C58.3281 4.2 57.4401 4.424 56.6721 4.872C55.9201 5.304 55.3361 5.92 54.9201 6.72C54.5041 7.504 54.2961 8.432 54.2961 9.504C54.2961 10.304 54.4161 11.032 54.6561 11.688C54.8961 12.344 55.2321 12.912 55.6641 13.392C56.1121 13.856 56.6481 14.216 57.2721 14.472C57.8961 14.728 58.5841 14.856 59.3361 14.856Z" fill="black"/>
</svg>
