<svg width="161" height="40" viewBox="0 0 161 40" fill="none" xmlns="http://www.w3.org/2000/svg">
<path d="M53.6705 28.7003V12.108H57.3603V28.7003H53.6705ZM56.4907 22.1903V19.0176H64.7868V22.1903H56.4907ZM56.4907 15.2808V12.108H65.1629V15.2808H56.4907ZM72.3361 28.9588C71.161 28.9588 70.0956 28.7003 69.1398 28.1833C68.1998 27.6506 67.4555 26.9298 66.9072 26.0211C66.3588 25.1124 66.0846 24.094 66.0846 22.9659C66.0846 21.8378 66.3588 20.8272 66.9072 19.9341C67.4555 19.0411 68.1998 18.336 69.1398 17.819C70.0799 17.2862 71.1453 17.0199 72.3361 17.0199C73.5268 17.0199 74.5923 17.2784 75.5323 17.7955C76.4724 18.3125 77.2166 19.0254 77.765 19.9341C78.3134 20.8272 78.5876 21.8378 78.5876 22.9659C78.5876 24.094 78.3134 25.1124 77.765 26.0211C77.2166 26.9298 76.4724 27.6506 75.5323 28.1833C74.5923 28.7003 73.5268 28.9588 72.3361 28.9588ZM72.3361 25.6921C72.8531 25.6921 73.3075 25.5824 73.6992 25.3631C74.0909 25.128 74.3886 24.8068 74.5923 24.3995C74.8116 23.9764 74.9213 23.4986 74.9213 22.9659C74.9213 22.4332 74.8116 21.971 74.5923 21.5793C74.3729 21.1719 74.0674 20.8585 73.6757 20.6392C73.2997 20.4042 72.8531 20.2867 72.3361 20.2867C71.8347 20.2867 71.3882 20.4042 70.9965 20.6392C70.6048 20.8585 70.2993 21.1719 70.0799 21.5793C69.8606 21.9866 69.7509 22.4567 69.7509 22.9894C69.7509 23.5064 69.8606 23.9764 70.0799 24.3995C70.2993 24.8068 70.6048 25.128 70.9965 25.3631C71.3882 25.5824 71.8347 25.6921 72.3361 25.6921ZM80.3778 28.7003V11.638H83.9735V28.7003H80.3778ZM86.5057 28.7003V11.638H90.1015V28.7003H86.5057ZM98.133 28.9588C96.9579 28.9588 95.8925 28.7003 94.9368 28.1833C93.9967 27.6506 93.2525 26.9298 92.7041 26.0211C92.1557 25.1124 91.8815 24.094 91.8815 22.9659C91.8815 21.8378 92.1557 20.8272 92.7041 19.9341C93.2525 19.0411 93.9967 18.336 94.9368 17.819C95.8769 17.2862 96.9423 17.0199 98.133 17.0199C99.3238 17.0199 100.389 17.2784 101.329 17.7955C102.269 18.3125 103.014 19.0254 103.562 19.9341C104.11 20.8272 104.385 21.8378 104.385 22.9659C104.385 24.094 104.11 25.1124 103.562 26.0211C103.014 26.9298 102.269 27.6506 101.329 28.1833C100.389 28.7003 99.3238 28.9588 98.133 28.9588ZM98.133 25.6921C98.6501 25.6921 99.1044 25.5824 99.4961 25.3631C99.8878 25.128 100.186 24.8068 100.389 24.3995C100.609 23.9764 100.718 23.4986 100.718 22.9659C100.718 22.4332 100.609 21.971 100.389 21.5793C100.17 21.1719 99.8643 20.8585 99.4726 20.6392C99.0966 20.4042 98.6501 20.2867 98.133 20.2867C97.6317 20.2867 97.1851 20.4042 96.7934 20.6392C96.4017 20.8585 96.0962 21.1719 95.8769 21.5793C95.6575 21.9866 95.5478 22.4567 95.5478 22.9894C95.5478 23.5064 95.6575 23.9764 95.8769 24.3995C96.0962 24.8068 96.4017 25.128 96.7934 25.3631C97.1851 25.5824 97.6317 25.6921 98.133 25.6921ZM108.742 28.7003L104.794 17.2784H108.319L110.763 25.5746L109.729 25.5981L112.432 17.2784H115.346L118.072 25.5981L117.015 25.5746L119.482 17.2784H123.008L119.059 28.7003H116.122L113.466 20.8037H114.359L111.656 28.7003H108.742ZM128.873 28.7003V17.2784H132.469V28.7003H128.873ZM136.182 28.7003V22.0258C136.182 21.4461 136.002 20.9995 135.642 20.6862C135.297 20.3572 134.866 20.1926 134.349 20.1926C133.989 20.1926 133.668 20.271 133.386 20.4277C133.104 20.5687 132.876 20.7724 132.704 21.0387C132.547 21.3051 132.469 21.6341 132.469 22.0258L131.082 21.4147C131.082 20.506 131.278 19.7304 131.67 19.0881C132.062 18.43 132.594 17.9286 133.268 17.5839C133.942 17.2236 134.702 17.0434 135.548 17.0434C136.347 17.0434 137.06 17.2236 137.686 17.5839C138.329 17.9443 138.838 18.4457 139.214 19.0881C139.59 19.7304 139.778 20.4982 139.778 21.3912V28.7003H136.182ZM143.491 28.7003V22.0258C143.491 21.4461 143.311 20.9995 142.951 20.6862C142.606 20.3572 142.175 20.1926 141.658 20.1926C141.298 20.1926 140.977 20.271 140.695 20.4277C140.413 20.5687 140.186 20.7724 140.013 21.0387C139.856 21.3051 139.778 21.6341 139.778 22.0258L137.71 21.7438C137.741 20.7724 137.968 19.942 138.392 19.2526C138.83 18.5475 139.402 18.007 140.107 17.6309C140.828 17.2392 141.635 17.0434 142.528 17.0434C143.405 17.0434 144.181 17.2314 144.855 17.6074C145.544 17.9678 146.084 18.4927 146.476 19.1821C146.884 19.8558 147.087 20.6705 147.087 21.6263V28.7003H143.491ZM155.032 28.9588C153.794 28.9588 152.69 28.7082 151.718 28.2068C150.762 27.6897 150.01 26.9768 149.462 26.0681C148.914 25.1594 148.639 24.1331 148.639 22.9894C148.639 21.8456 148.906 20.8272 149.439 19.9341C149.987 19.0254 150.723 18.3125 151.648 17.7955C152.572 17.2784 153.614 17.0199 154.773 17.0199C155.902 17.0199 156.896 17.2627 157.758 17.7485C158.62 18.2342 159.294 18.9079 159.779 19.7696C160.281 20.6313 160.531 21.6184 160.531 22.7308C160.531 22.9345 160.516 23.1539 160.484 23.3889C160.469 23.6082 160.43 23.8668 160.367 24.1645L150.52 24.188V21.7203L158.839 21.6968L157.288 22.7308C157.272 22.0728 157.171 21.5323 156.983 21.1092C156.795 20.6705 156.513 20.3415 156.137 20.1221C155.776 19.8871 155.33 19.7696 154.797 19.7696C154.233 19.7696 153.739 19.9028 153.316 20.1691C152.909 20.4198 152.588 20.7802 152.353 21.2502C152.133 21.7203 152.024 22.2921 152.024 22.9659C152.024 23.6396 152.141 24.2193 152.376 24.705C152.627 25.175 152.972 25.5432 153.41 25.8096C153.865 26.0603 154.397 26.1856 155.008 26.1856C155.572 26.1856 156.082 26.0916 156.536 25.9036C156.99 25.6999 157.39 25.4022 157.735 25.0105L159.709 26.9847C159.145 27.6427 158.463 28.1363 157.664 28.4653C156.865 28.7943 155.988 28.9588 155.032 28.9588Z" fill="black"/>
<rect width="39.0718" height="39.0718" rx="6.96157" fill="#00414A"/>
<path d="M13.9231 23.2343L17.6649 19.4924V23.2343H13.9231Z" fill="white"/>
<path d="M13.9231 15.7505L17.6649 12.0087V15.7505H13.9231Z" fill="white"/>
<path d="M17.665 12.0087H24.8993C25.037 12.0087 25.1487 12.1204 25.1487 12.2581V15.5011C25.1487 15.6388 25.037 15.7505 24.8993 15.7505H17.665V12.0087Z" fill="white"/>
<path d="M17.665 19.4924H23.1531C23.2909 19.4924 23.4025 19.6041 23.4025 19.7419V22.9848C23.4025 23.1226 23.2909 23.2343 23.1531 23.2343H17.665V19.4924Z" fill="white"/>
<path d="M13.9231 15.7506H17.6649V19.4925H14.1726C14.0348 19.4925 13.9231 19.3808 13.9231 19.243V15.7506Z" fill="white"/>
<path d="M13.9231 23.2343H17.6649V26.7266C17.6649 26.8644 17.5533 26.9761 17.4155 26.9761H14.1726C14.0348 26.9761 13.9231 26.8644 13.9231 26.7266V23.2343Z" fill="white"/>
</svg>
